:SAMPLES-PER-SECOND 24
:FULLY-SPECIFIED
:DEGREES
217
root  0.311788 40.4325 15.7157 155.794 7.73997 158.736
RightUpLeg  5.3873 2.685 -21.2132
RightLeg  28.9842 15.5151 8.90949
RightFoot  -4.13694 -0.126795 1.56655
RightToes  -1.74623e-010 0 -2.59999e-017
Spine  3.87865 -0.618592 -0.916281
Spine1  12.0126 1.32775 -7.10345
HEad  3.15835 15.5014 -13.0034
LeftShoulder1  2.04623 -3.31726 -23.7609
LeftArm  -0.470106 -3.42527 -38.6631
LeftForeArm  144.543 -66.2928 -154.832
LeftHand  0.0400931 6.00771 11.1957
RightShoulder  2.9816 5.51045 27.0888
RightArm  9.5299 1.95784 40.7523
RightForeArm  81.1023 79.7784 81.0828
RightHand  -0.22909 -2.55927 -9.02047
LeftUpLeg  -56.0919 17.3782 4.56103
LeftLeg  101.507 1.84438 -8.79061
LeftFoot  20.234 1.61 -6.13619
LeftToes  -6.27559e-011 -2.10356e-011 8.24929e-012
218
root  0.573508 39.5776 16.5005 159.822 1.58873 165.147
RightUpLeg  4.74391 -2.17202 -15.3782
RightLeg  27.7732 12.8017 6.97883
RightFoot  -8.43393 -0.0418518 -0.52217
RightToes  -1.74623e-010 0 -2.59999e-017
Spine  1.75628 -2.08997 0.877293
Spine1  13.5862 -0.470549 -4.70515
HEad  -0.66448 11.7104 -10.9589
LeftShoulder1  1.84184 -2.84207 -22.7377
LeftArm  2.30874 -10.671 -42.354
LeftForeArm  144.441 -66.9566 -154.05
LeftHand  0.0755238 6.39177 11.1904
RightShoulder  3.16165 5.58942 28.8328
RightArm  4.79585 -2.1799 35.6539
RightForeArm  67.403 78.9911 64.6134
RightHand  -0.050362 -5.04315 -9.97579
LeftUpLeg  -50.6175 14.5278 2.44187
LeftLeg  96.6579 0.471862 -4.85603
LeftFoot  15.9956 0.950086 -4.33454
LeftToes  -6.27559e-011 -2.10356e-011 8.24929e-012
219
root  0.768127 39.0235 17.4424 163.007 -2.21411 168.658
RightUpLeg  -0.467324 -7.0063 -11.0427
RightLeg  30.3217 7.97703 4.76079
RightFoot  -8.35931 0.0518 -4.03156
RightToes  -1.74623e-010 0 -2.59999e-017
Spine  0.196608 -2.23942 1.55584
Spine1  15.8128 -0.736394 -3.83987
HEad  -4.57982 8.51961 -10.454
LeftShoulder1  1.8881 -2.74989 -23.9527
LeftArm  5.00307 -14.4315 -45.5498
LeftForeArm  146.42 -68.1411 -152.82
LeftHand  0.0551478 6.30693 9.77794
RightShoulder  3.3848 5.69348 30.912
RightArm  0.815087 -5.53865 31.1656
RightForeArm  55.2492 75.9996 42.4186
RightHand  0.11907 -8.21362 -6.65449
LeftUpLeg  -41.678 13.8854 1.58431
LeftLeg  88.7988 -0.238867 -1.97265
LeftFoot  15.9853 1.21311 -5.38714
LeftToes  -6.27559e-011 -2.10356e-011 8.24929e-012
220
root  0.88251 38.9168 18.2757 164.566 -6.47559 170.676
RightUpLeg  -2.85901 -8.4513 -9.30443
RightLeg  30.8017 5.69853 3.41318
RightFoot  -7.11805 0.074292 -3.32525
RightToes  -1.74623e-010 0 -2.59999e-017
Spine  0.766778 -2.70543 -1.43709
Spine1  16.6019 -2.21262 -0.0618835
HEad  -7.69792 7.25011 -10.2118
LeftShoulder1  2.05325 -3.02624 -25.2701
LeftArm  7.63768 -10.9982 -48.3134
LeftForeArm  148.321 -68.94 -151.993
LeftHand  0.0401971 6.13139 9.70777
RightShoulder  3.35348 5.64523 30.7596
RightArm  -1.47393 -9.31319 30.964
RightForeArm  47.59 68.293 23.5241
RightHand  -0.0113744 -10.5311 -1.13215
LeftUpLeg  -29.8231 12.9846 1.88672
LeftLeg  79.613 -0.298613 -0.219499
LeftFoot  18.1588 1.86287 -7.48403
LeftToes  -6.27559e-011 -2.10356e-011 8.24929e-012
221
root  0.930014 39.1187 19.0806 165.843 -11.5804 172.615
RightUpLeg  -2.77849 -10.6382 -8.21664
RightLeg  26.8986 4.16219 2.05767
RightFoot  -4.98445 0.049627 -1.50171
RightToes  -1.74623e-010 0 -2.59999e-017
Spine  1.40739 -3.59904 -4.15429
Spine1  16.3608 -3.88888 3.04838
HEad  -9.07192 6.07702 -8.09024
LeftShoulder1  2.10003 -3.2156 -25.0756
LeftArm  11.0863 -5.7683 -50.3018
LeftForeArm  145.43 -69.3959 -150.967
LeftHand  0.0781739 6.36167 11.7269
RightShoulder  3.26583 5.54579 30.1856
RightArm  -2.577 -13.9487 32.1675
RightForeArm  41.3634 58.9732 14.9413
RightHand  -0.100067 -11.4611 0.681152
LeftUpLeg  -18.6617 10.9717 4.02723
LeftLeg  70.5435 -0.0747519 0.647538
LeftFoot  17.8453 2.10538 -8.5006
LeftToes  -6.27559e-011 -2.10356e-011 8.24929e-012
222
root  0.898805 39.3368 19.9143 167.805 -16.2617 173.555
RightUpLeg  -3.78055 -11.7309 -7.40237
RightLeg  23.0116 0.306057 -0.0909385
RightFoot  -3.0035 0.0482643 -0.936577
RightToes  -1.74623e-010 0 -2.59999e-017
Spine  0.486665 -4.08417 -5.69881
Spine1  16.5665 -4.37498 3.05408
HEad  -8.8693 3.60133 -4.8905
LeftShoulder1  2.09014 -3.20669 -24.9651
LeftArm  14.4748 -3.66014 -49.6627
LeftForeArm  142.178 -69.3775 -150.563
LeftHand  0.106178 6.64004 11.8412
RightShoulder  3.28811 5.54868 30.4243
RightArm  -1.32108 -18.0493 32.3977
RightForeArm  28.9924 48.9628 10.7025
RightHand  0.0404209 -8.40647 -3.61137
LeftUpLeg  -9.81816 9.44 6.55037
LeftLeg  62.0911 0.25901 1.14588
LeftFoot  14.5366 1.59697 -7.32688
LeftToes  -6.27559e-011 -2.10356e-011 8.24929e-012
